<svg xmlns="http://www.w3.org/2000/svg" width="860" height="360" font-family="system-ui,sans-serif" font-size="12">
<rect width="100%" height="100%" fill="#fafaf8"/>
<text x="60" y="20" font-size="14" font-weight="600">#1304 keystroke cost, 71 keystrokes at 25 ms cadence, dev build, medians of 3-4 clean runs</text>
<line x1="60" x2="840" y1="260.0" y2="260.0" stroke="#e2e2de"/>
<text x="52" y="264.0" text-anchor="end" fill="#666">0</text>
<line x1="60" x2="840" y1="190.0" y2="190.0" stroke="#e2e2de"/>
<text x="52" y="194.0" text-anchor="end" fill="#666">10</text>
<line x1="60" x2="840" y1="120.0" y2="120.0" stroke="#e2e2de"/>
<text x="52" y="124.0" text-anchor="end" fill="#666">20</text>
<line x1="60" x2="840" y1="50.0" y2="50.0" stroke="#e2e2de"/>
<text x="52" y="54.0" text-anchor="end" fill="#666">30</text>
<rect x="90" y="121.4" width="40" height="138.6" fill="#2f5fbf"/>
<text x="110.0" y="117.4" text-anchor="middle">19.8</text>
<rect x="148" y="136.1" width="40" height="123.9" fill="#8fa4d8"/>
<text x="168.0" y="132.1" text-anchor="middle">17.7</text>
<rect x="206" y="248.1" width="40" height="11.9" fill="#c94c2e"/>
<text x="226.0" y="244.1" text-anchor="middle">0.17</text>
<text x="168.0" y="280" text-anchor="middle" fill="#333">base, small thread</text>
<text x="168.0" y="295" text-anchor="middle" fill="#333">(13 rows / 840 nodes)</text>
<text x="168.0" y="315" text-anchor="middle" fill="#666">React fibers rendered / key: 156</text>
<rect x="316" y="72.8" width="40" height="187.2" fill="#2f5fbf"/>
<text x="336.0" y="68.8" text-anchor="middle">26.75</text>
<rect x="374" y="120.0" width="40" height="140.0" fill="#8fa4d8"/>
<text x="394.0" y="116.0" text-anchor="middle">20.0</text>
<rect x="432" y="134.7" width="40" height="125.3" fill="#c94c2e"/>
<text x="452.0" y="130.7" text-anchor="middle">1.79</text>
<text x="394.0" y="280" text-anchor="middle" fill="#333">base, big thread fully mounted</text>
<text x="394.0" y="295" text-anchor="middle" fill="#333">(197 rows / 5,925 nodes)</text>
<text x="394.0" y="315" text-anchor="middle" fill="#666">React fibers rendered / key: 180</text>
<rect x="542" y="119.0" width="40" height="141.0" fill="#2f5fbf"/>
<text x="562.0" y="115.0" text-anchor="middle">20.15</text>
<rect x="600" y="170.4" width="40" height="89.6" fill="#8fa4d8"/>
<text x="620.0" y="166.4" text-anchor="middle">12.8</text>
<rect x="658" y="257.2" width="40" height="2.8" fill="#c94c2e"/>
<text x="678.0" y="253.2" text-anchor="middle">0.04</text>
<text x="620.0" y="280" text-anchor="middle" fill="#333">with fix, big thread fully mounted</text>
<text x="620.0" y="295" text-anchor="middle" fill="#333">(197 rows / 5,925 nodes)</text>
<text x="620.0" y="315" text-anchor="middle" fill="#666">React fibers rendered / key: 81</text>
<rect x="60" y="332" width="12" height="12" fill="#2f5fbf"/><text x="76" y="342">wall overhead / key (ms)</text>
<rect x="330" y="332" width="12" height="12" fill="#8fa4d8"/><text x="346" y="342">script time / key (ms)</text>
<rect x="600" y="332" width="12" height="12" fill="#c94c2e"/><text x="616" y="342">propagateParentContextChanges / key (ms) x10</text>
</svg>